<svg xmlns="http://www.w3.org/2000/svg" viewBox="0 0 1254 [[[-1 -1  1 -1]
  [-1 -1 -1  0]]]" fill="black">
<path d="M 243 346 L 243 432 L 324 432 L 325 433 L 325 788 L 324 789 L 323 789 L 322 790 L 321 789 L 306 789 L 305 790 L 292 790 L 291 789 L 288 789 L 287 790 L 276 790 L 275 789 L 264 789 L 263 790 L 252 790 L 251 789 L 246 789 L 245 790 L 244 790 L 243 789 L 243 874 L 552 874 L 552 527 L 438 527 L 436 525 L 436 435 L 438 433 L 829 433 L 830 434 L 830 526 L 829 527 L 651 527 L 651 874 L 897 874 L 898 873 L 905 873 L 906 872 L 911 872 L 912 871 L 917 871 L 918 870 L 921 870 L 922 869 L 925 869 L 926 868 L 928 868 L 929 867 L 932 867 L 933 866 L 935 866 L 936 865 L 938 865 L 939 864 L 940 864 L 941 863 L 943 863 L 944 862 L 945 862 L 946 861 L 948 861 L 949 860 L 950 860 L 951 859 L 952 859 L 953 858 L 954 858 L 955 857 L 956 857 L 957 856 L 958 856 L 959 855 L 960 855 L 962 853 L 963 853 L 964 852 L 965 852 L 967 850 L 968 850 L 970 848 L 971 848 L 974 845 L 975 845 L 978 842 L 979 842 L 983 838 L 984 838 L 996 826 L 996 825 L 1001 820 L 1001 819 L 1004 816 L 1004 815 L 1007 812 L 1007 811 L 1009 809 L 1009 808 L 1010 807 L 1010 806 L 1012 804 L 1012 803 L 1013 802 L 1013 801 L 1015 799 L 1015 798 L 1016 797 L 1016 796 L 1017 795 L 1017 794 L 1018 793 L 1018 792 L 1019 791 L 1019 789 L 1020 788 L 1020 787 L 1021 786 L 1021 785 L 1022 784 L 1022 782 L 1023 781 L 1023 780 L 1024 779 L 1024 777 L 1025 776 L 1025 774 L 1026 773 L 1026 771 L 1027 770 L 1027 768 L 1028 767 L 1028 764 L 1029 763 L 1029 760 L 1030 759 L 1030 756 L 1031 755 L 1031 751 L 1032 750 L 1032 745 L 1033 744 L 1033 737 L 1034 736 L 1034 701 L 1033 700 L 1033 693 L 1032 692 L 1032 688 L 1031 687 L 1031 683 L 1030 682 L 1030 679 L 1029 678 L 1029 676 L 1028 675 L 1028 673 L 1027 672 L 1027 670 L 1026 669 L 1026 667 L 1025 666 L 1025 665 L 1024 664 L 1024 662 L 1023 661 L 1023 660 L 1022 659 L 1022 658 L 1021 657 L 1021 656 L 1020 655 L 1020 654 L 1019 653 L 1019 652 L 1017 650 L 1017 649 L 1016 648 L 1016 647 L 1014 645 L 1014 644 L 1012 642 L 1012 641 L 1009 638 L 1009 637 L 1003 631 L 1003 630 L 999 626 L 998 626 L 993 621 L 992 621 L 988 617 L 987 617 L 985 615 L 984 615 L 982 613 L 981 613 L 980 612 L 979 612 L 978 611 L 977 611 L 975 609 L 974 609 L 973 608 L 972 608 L 971 607 L 970 607 L 969 606 L 968 606 L 967 605 L 965 605 L 964 604 L 963 604 L 962 603 L 961 603 L 960 602 L 958 602 L 957 601 L 955 601 L 954 600 L 952 600 L 951 599 L 948 599 L 947 598 L 945 598 L 944 597 L 940 597 L 939 596 L 937 596 L 936 595 L 938 593 L 940 593 L 941 592 L 943 592 L 944 591 L 946 591 L 947 590 L 948 590 L 949 589 L 950 589 L 951 588 L 953 588 L 954 587 L 955 587 L 957 585 L 958 585 L 959 584 L 960 584 L 962 582 L 963 582 L 965 580 L 966 580 L 968 578 L 969 578 L 973 574 L 974 574 L 983 565 L 983 564 L 988 559 L 988 558 L 990 556 L 990 555 L 993 552 L 993 551 L 994 550 L 994 549 L 996 547 L 996 546 L 997 545 L 997 544 L 998 543 L 998 542 L 999 541 L 999 540 L 1000 539 L 1000 537 L 1001 536 L 1001 535 L 1002 534 L 1002 533 L 1003 532 L 1003 530 L 1004 529 L 1004 527 L 1005 526 L 1005 523 L 1006 522 L 1006 520 L 1007 519 L 1007 516 L 1008 515 L 1008 511 L 1009 510 L 1009 505 L 1010 504 L 1010 495 L 1011 494 L 1011 469 L 1010 468 L 1010 460 L 1009 459 L 1009 454 L 1008 453 L 1008 449 L 1007 448 L 1007 445 L 1006 444 L 1006 441 L 1005 440 L 1005 437 L 1004 436 L 1004 434 L 1003 433 L 1003 431 L 1002 430 L 1002 429 L 1001 428 L 1001 426 L 1000 425 L 1000 424 L 999 423 L 999 422 L 998 421 L 998 420 L 997 419 L 997 418 L 996 417 L 996 416 L 995 415 L 995 414 L 994 413 L 994 412 L 993 411 L 993 410 L 991 408 L 991 407 L 989 405 L 989 404 L 987 402 L 987 401 L 983 397 L 983 396 L 967 380 L 966 380 L 962 376 L 961 376 L 958 373 L 957 373 L 955 371 L 954 371 L 952 369 L 951 369 L 950 368 L 949 368 L 948 367 L 947 367 L 946 366 L 945 366 L 944 365 L 943 365 L 941 363 L 939 363 L 938 362 L 937 362 L 936 361 L 935 361 L 934 360 L 933 360 L 932 359 L 931 359 L 930 358 L 928 358 L 927 357 L 926 357 L 925 356 L 923 356 L 922 355 L 920 355 L 919 354 L 916 354 L 915 353 L 913 353 L 912 352 L 909 352 L 908 351 L 904 351 L 903 350 L 899 350 L 898 349 L 893 349 L 892 348 L 885 348 L 884 347 L 868 347 L 867 346 Z" fill-rule="evenodd"/>
<path d="M 745 638 L 746 637 L 864 637 L 865 638 L 871 638 L 872 639 L 874 639 L 875 640 L 877 640 L 878 641 L 880 641 L 881 642 L 882 642 L 883 643 L 884 643 L 886 645 L 887 645 L 890 648 L 891 648 L 898 655 L 898 656 L 901 659 L 901 660 L 902 661 L 902 662 L 903 663 L 903 664 L 904 665 L 904 666 L 905 667 L 905 668 L 906 669 L 906 670 L 907 671 L 907 672 L 908 673 L 908 676 L 909 677 L 909 680 L 910 681 L 910 685 L 911 686 L 911 692 L 912 693 L 912 719 L 911 720 L 911 727 L 910 728 L 910 732 L 909 733 L 909 736 L 908 737 L 908 739 L 907 740 L 907 742 L 906 743 L 906 744 L 905 745 L 905 746 L 904 747 L 904 748 L 903 749 L 903 750 L 902 751 L 902 752 L 900 754 L 900 755 L 898 757 L 898 758 L 889 767 L 888 767 L 886 769 L 885 769 L 883 771 L 882 771 L 881 772 L 880 772 L 879 773 L 877 773 L 876 774 L 874 774 L 873 775 L 870 775 L 869 776 L 862 776 L 861 777 L 747 777 L 745 775 Z" fill-rule="evenodd"/>
</svg>